<mxfile host="Electron" modified="2024-05-12T20:44:44.619Z" agent="Mozilla/5.0 (Windows NT 10.0; Win64; x64) AppleWebKit/537.36 (KHTML, like Gecko) draw.io/24.2.5 Chrome/120.0.6099.109 Electron/28.1.0 Safari/537.36" etag="KWB0mVBlxYsGQgDDzmFn" version="24.2.5" type="device">
  <diagram name="Pagina-1" id="QI2gKdlKlqPeXvp3Vsb9">
    <mxGraphModel dx="1495" dy="391" grid="1" gridSize="10" guides="1" tooltips="1" connect="1" arrows="1" fold="1" page="1" pageScale="1" pageWidth="827" pageHeight="1169" math="0" shadow="0">
      <root>
        <mxCell id="0" />
        <mxCell id="1" parent="0" />
        <mxCell id="HeoK3iJoNBWOyV3JdG0c-8" value="&lt;font style=&quot;font-size: 8px;&quot;&gt;Argomento&lt;/font&gt;" style="text;html=1;align=center;verticalAlign=middle;whiteSpace=wrap;rounded=1;strokeColor=none;" vertex="1" parent="1">
          <mxGeometry x="163.76" y="712.6100000000002" width="40" height="19" as="geometry" />
        </mxCell>
        <mxCell id="HeoK3iJoNBWOyV3JdG0c-9" style="edgeStyle=orthogonalEdgeStyle;rounded=0;orthogonalLoop=1;jettySize=auto;html=1;exitX=0.5;exitY=1;exitDx=0;exitDy=0;" edge="1" parent="1">
          <mxGeometry relative="1" as="geometry">
            <mxPoint x="3.7399999999999958" y="698.6200000000001" as="sourcePoint" />
            <mxPoint x="3.7399999999999958" y="698.6200000000001" as="targetPoint" />
          </mxGeometry>
        </mxCell>
        <mxCell id="HeoK3iJoNBWOyV3JdG0c-10" style="edgeStyle=orthogonalEdgeStyle;rounded=0;orthogonalLoop=1;jettySize=auto;html=1;exitX=0.5;exitY=1;exitDx=0;exitDy=0;" edge="1" parent="1">
          <mxGeometry relative="1" as="geometry">
            <mxPoint x="21.739999999999984" y="697.7100000000002" as="sourcePoint" />
            <mxPoint x="21.739999999999984" y="697.7100000000002" as="targetPoint" />
          </mxGeometry>
        </mxCell>
        <mxCell id="HeoK3iJoNBWOyV3JdG0c-19" value="&lt;font style=&quot;font-size: 9px;&quot;&gt;Codice&lt;/font&gt;" style="text;html=1;align=center;verticalAlign=middle;whiteSpace=wrap;rounded=0;" vertex="1" parent="1">
          <mxGeometry x="77.23999999999998" y="673.9200000000003" width="42.67" height="17.9" as="geometry" />
        </mxCell>
        <mxCell id="HeoK3iJoNBWOyV3JdG0c-20" style="edgeStyle=orthogonalEdgeStyle;rounded=0;orthogonalLoop=1;jettySize=auto;html=1;exitX=0.75;exitY=0;exitDx=0;exitDy=0;endArrow=oval;endFill=1;" edge="1" parent="1">
          <mxGeometry relative="1" as="geometry">
            <mxPoint x="100.46999999999987" y="707.9400000000003" as="sourcePoint" />
            <mxPoint x="98.46999999999987" y="691.9400000000003" as="targetPoint" />
          </mxGeometry>
        </mxCell>
        <mxCell id="HeoK3iJoNBWOyV3JdG0c-21" value="&lt;font style=&quot;font-size: 8px;&quot;&gt;Tema&lt;/font&gt;&lt;div style=&quot;line-height: 50%;&quot;&gt;&lt;font style=&quot;font-size: 8px;&quot;&gt;Storico&lt;/font&gt;&lt;/div&gt;" style="text;html=1;align=center;verticalAlign=middle;whiteSpace=wrap;rounded=1;strokeColor=none;" vertex="1" parent="1">
          <mxGeometry x="15.320000000000011" y="748.7800000000001" width="40" height="20" as="geometry" />
        </mxCell>
        <mxCell id="HeoK3iJoNBWOyV3JdG0c-26" style="edgeStyle=orthogonalEdgeStyle;rounded=0;orthogonalLoop=1;jettySize=auto;html=1;exitX=1.002;exitY=0.482;exitDx=0;exitDy=0;endArrow=oval;endFill=0;entryX=-0.112;entryY=0.718;entryDx=0;entryDy=0;entryPerimeter=0;exitPerimeter=0;" edge="1" parent="1">
          <mxGeometry relative="1" as="geometry">
            <mxPoint x="135.82" y="724.5836600000006" as="sourcePoint" />
            <mxPoint x="159.06000000000003" y="724.4600000000004" as="targetPoint" />
            <Array as="points">
              <mxPoint x="149.07000000000002" y="724.4600000000004" />
            </Array>
          </mxGeometry>
        </mxCell>
        <mxCell id="HeoK3iJoNBWOyV3JdG0c-27" style="edgeStyle=orthogonalEdgeStyle;rounded=0;orthogonalLoop=1;jettySize=auto;html=1;exitX=0;exitY=0.75;exitDx=0;exitDy=0;entryX=0.578;entryY=0.124;entryDx=0;entryDy=0;entryPerimeter=0;endArrow=oval;endFill=0;" edge="1" parent="1" source="HeoK3iJoNBWOyV3JdG0c-32">
          <mxGeometry relative="1" as="geometry">
            <mxPoint x="35.199999999999974" y="739.6200000000002" as="sourcePoint" />
            <mxPoint x="35.319999999999865" y="750.0888482490276" as="targetPoint" />
          </mxGeometry>
        </mxCell>
        <mxCell id="HeoK3iJoNBWOyV3JdG0c-28" style="edgeStyle=orthogonalEdgeStyle;rounded=0;orthogonalLoop=1;jettySize=auto;html=1;exitX=1;exitY=0.75;exitDx=0;exitDy=0;entryX=0.578;entryY=0.124;entryDx=0;entryDy=0;entryPerimeter=0;endArrow=oval;endFill=0;" edge="1" parent="1" source="HeoK3iJoNBWOyV3JdG0c-32">
          <mxGeometry relative="1" as="geometry">
            <mxPoint x="147.32000000000002" y="741.95" as="sourcePoint" />
            <mxPoint x="147.4399999999999" y="752.4188482490274" as="targetPoint" />
          </mxGeometry>
        </mxCell>
        <mxCell id="HeoK3iJoNBWOyV3JdG0c-29" value="&lt;span style=&quot;font-size: 8px;&quot;&gt;Descrizione&lt;/span&gt;" style="text;html=1;align=center;verticalAlign=middle;whiteSpace=wrap;rounded=1;strokeColor=none;" vertex="1" parent="1">
          <mxGeometry x="132.44" y="748.7800000000001" width="40" height="20" as="geometry" />
        </mxCell>
        <mxCell id="HeoK3iJoNBWOyV3JdG0c-30" style="edgeStyle=orthogonalEdgeStyle;rounded=0;orthogonalLoop=1;jettySize=auto;html=1;exitX=1.002;exitY=0.482;exitDx=0;exitDy=0;endArrow=oval;endFill=0;entryX=-0.112;entryY=0.718;entryDx=0;entryDy=0;entryPerimeter=0;exitPerimeter=0;" edge="1" parent="1">
          <mxGeometry relative="1" as="geometry">
            <mxPoint x="135.82000000000002" y="709.9936600000004" as="sourcePoint" />
            <mxPoint x="159.06000000000003" y="709.8700000000002" as="targetPoint" />
            <Array as="points">
              <mxPoint x="149.07000000000002" y="709.8700000000002" />
            </Array>
          </mxGeometry>
        </mxCell>
        <mxCell id="HeoK3iJoNBWOyV3JdG0c-31" value="&lt;font style=&quot;font-size: 8px;&quot;&gt;Titolo&lt;/font&gt;" style="text;html=1;align=center;verticalAlign=middle;whiteSpace=wrap;rounded=1;strokeColor=none;" vertex="1" parent="1">
          <mxGeometry x="154.81000000000003" y="698.1600000000002" width="40" height="19" as="geometry" />
        </mxCell>
        <mxCell id="HeoK3iJoNBWOyV3JdG0c-32" value="Conversazione" style="whiteSpace=wrap;html=1;align=center;" vertex="1" parent="1">
          <mxGeometry x="53.65999999999999" y="702.7100000000003" width="83" height="35.63" as="geometry" />
        </mxCell>
        <mxCell id="HeoK3iJoNBWOyV3JdG0c-35" value="&lt;span style=&quot;font-size: 8px;&quot;&gt;Motivo&lt;/span&gt;" style="text;html=1;align=center;verticalAlign=middle;whiteSpace=wrap;rounded=1;strokeColor=none;" vertex="1" parent="1">
          <mxGeometry x="96.65999999999997" y="745.9200000000002" width="40" height="20" as="geometry" />
        </mxCell>
        <mxCell id="HeoK3iJoNBWOyV3JdG0c-36" style="edgeStyle=orthogonalEdgeStyle;rounded=0;orthogonalLoop=1;jettySize=auto;html=1;exitX=0.75;exitY=1;exitDx=0;exitDy=0;entryX=0.578;entryY=0.124;entryDx=0;entryDy=0;entryPerimeter=0;endArrow=oval;endFill=0;" edge="1" parent="1">
          <mxGeometry relative="1" as="geometry">
            <mxPoint x="116.88000000000004" y="738.3100000000001" as="sourcePoint" />
            <mxPoint x="116.99999999999993" y="748.7788482490274" as="targetPoint" />
          </mxGeometry>
        </mxCell>
        <mxCell id="HeoK3iJoNBWOyV3JdG0c-52" style="edgeStyle=orthogonalEdgeStyle;rounded=0;orthogonalLoop=1;jettySize=auto;html=1;exitX=0.75;exitY=1;exitDx=0;exitDy=0;endArrow=oval;endFill=0;" edge="1" parent="1">
          <mxGeometry relative="1" as="geometry">
            <mxPoint x="83.45000000000005" y="738.3100000000001" as="sourcePoint" />
            <mxPoint x="80" y="770" as="targetPoint" />
          </mxGeometry>
        </mxCell>
        <mxCell id="HeoK3iJoNBWOyV3JdG0c-53" value="&lt;span style=&quot;font-size: 8px;&quot;&gt;TIPO&lt;/span&gt;" style="text;html=1;align=center;verticalAlign=middle;whiteSpace=wrap;rounded=1;strokeColor=none;" vertex="1" parent="1">
          <mxGeometry x="60.15999999999997" y="766.2900000000002" width="40" height="20" as="geometry" />
        </mxCell>
      </root>
    </mxGraphModel>
  </diagram>
</mxfile>
